# xmcd
#
# Track frame offsets: 
#        150
#        15182
#        32644
#        46794
#        63199
#        78971
#        95287
#        111028
#        129011
#        147935
#        162031
#        181059
#        195818
#
# Disc length: 2881 seconds
#
# Revision: 1
# Processed by: cddbd v1.4PL0 Copyright (c) Steve Scherf et al.
# Submitted via: ExactAudioCopy v0.90b4
#
DISCID=840b3f0d
DTITLE=The Booze Brothers - Evil Morning Blues
DYEAR=1998
DGENRE=Blues
TTITLE0=J:s Blues
TTITLE1=It Ain't Me
TTITLE2=Southbound
TTITLE3=Evil Morning Blues
TTITLE4=Blues For Baby
TTITLE5=If You Got To Love Somebody
TTITLE6=You Think You Fooled Me
TTITLE7=Love That Woman
TTITLE8=Bad Luck Blues
TTITLE9=Mrs Jones
TTITLE10=It Hurts Me To
TTITLE11=You're Humbuggin' me
TTITLE12=Too Much Woman
EXTD=
EXTT0=
EXTT1=
EXTT2=
EXTT3=
EXTT4=
EXTT5=
EXTT6=
EXTT7=
EXTT8=
EXTT9=
EXTT10=
EXTT11=
EXTT12=
PLAYORDER=
